<?xml version="1.0" standalone="no"?>
<!DOCTYPE svg PUBLIC "-//W3C//DTD SVG 20010904//EN"
 "http://www.w3.org/TR/2001/REC-SVG-20010904/DTD/svg10.dtd">
<svg version="1.0" xmlns="http://www.w3.org/2000/svg"
 width="736.000000pt" height="1034.000000pt" viewBox="0 0 736.000000 1034.000000"
 preserveAspectRatio="xMidYMid meet">

<g transform="translate(0.000000,1034.000000) scale(0.100000,-0.100000)"
fill="#000000" stroke="none">
<path d="M2969 10338 c-1 -2 -3 -208 -4 -458 -2 -250 -3 -458 -4 -462 -1 -5
-147 -8 -326 -8 l-325 0 2 -232 3 -233 558 -3 557 -2 0 700 0 700 -230 0
c-126 0 -231 -1 -231 -2z"/>
<path d="M3910 10087 l0 -243 188 -186 c103 -102 202 -200 220 -216 17 -17 32
-34 32 -37 0 -3 -99 -5 -220 -5 l-220 0 0 -225 0 -225 570 0 570 0 0 223 1
222 -228 222 -228 222 228 1 227 0 0 245 0 245 -570 0 -570 0 0 -243z"/>
</g>
</svg>
