<?xml version="1.0" standalone="no"?>
<!DOCTYPE svg PUBLIC "-//W3C//DTD SVG 20010904//EN"
 "http://www.w3.org/TR/2001/REC-SVG-20010904/DTD/svg10.dtd">
<svg version="1.0" xmlns="http://www.w3.org/2000/svg"
 width="512.000000pt" height="512.000000pt" viewBox="0 0 512.000000 512.000000"
 preserveAspectRatio="xMidYMid meet">

<g transform="translate(0.000000,512.000000) scale(0.100000,-0.100000)"
fill="#000000" stroke="none">
<path d="M3190 4943 c-18 -54 -37 -103 -44 -109 -6 -6 -40 -21 -76 -34 -36
-12 -99 -38 -140 -57 l-75 -34 -98 48 -97 47 -212 -212 -212 -212 47 -97 48
-98 -39 -85 c-21 -47 -47 -110 -57 -140 -10 -30 -21 -60 -26 -66 -5 -5 -41
-21 -82 -33 l-73 -23 -55 35 c-184 118 -421 191 -653 204 -415 22 -788 -175
-1002 -529 -71 -117 -105 -221 -189 -578 -86 -362 -88 -394 -42 -487 15 -28
49 -70 76 -94 l50 -44 3 -261 3 -260 37 -76 c45 -91 103 -147 196 -191 66 -31
71 -32 234 -35 l168 -4 0 -252 0 -252 -180 -72 c-212 -86 -281 -125 -372 -211
-157 -147 -248 -359 -248 -577 l0 -74 1201 0 1200 0 -2 246 -2 247 35 18 c73
37 128 128 128 209 0 81 -62 182 -130 210 l-30 12 1 152 0 151 240 199 239
200 0 218 0 218 -80 0 -80 0 -1 -182 0 -183 -240 -199 -239 -199 0 -187 0
-188 -30 -12 c-28 -12 -32 -10 -71 25 -47 42 -143 106 -188 125 l-31 12 0 194
0 193 63 47 c240 183 403 395 487 634 13 36 25 67 27 69 2 3 21 -13 43 -34
l40 -39 98 48 97 47 75 -34 c41 -19 104 -45 140 -57 36 -13 70 -28 76 -34 7
-6 26 -55 44 -108 l32 -98 109 0 109 0 0 -489 0 -489 -30 -12 c-68 -28 -130
-129 -130 -210 0 -124 116 -240 240 -240 124 0 240 116 240 240 0 81 -62 182
-130 210 l-30 12 0 489 0 489 109 0 109 0 32 98 c18 53 37 102 44 108 6 6 40
21 76 34 36 12 99 38 140 57 l75 34 98 -48 97 -47 212 212 212 212 -47 97 -48
98 34 75 c19 41 45 104 57 140 13 36 28 70 34 76 6 7 55 26 109 44 l97 32 0
298 0 298 -97 32 c-54 18 -103 37 -109 44 -6 6 -21 40 -34 76 -12 36 -38 99
-57 140 l-34 75 48 98 47 97 -212 212 -212 212 -97 -47 -98 -48 -85 39 c-47
21 -110 47 -140 57 -30 9 -60 22 -66 29 -7 6 -26 55 -44 109 l-32 97 -298 0
-298 0 -32 -97z m544 -157 l31 -88 115 -38 c109 -35 196 -74 265 -118 l30 -19
89 44 89 45 129 -130 130 -129 -45 -89 -44 -89 19 -30 c44 -69 83 -156 118
-265 l38 -115 88 -31 89 -31 0 -183 0 -183 -89 -31 -88 -31 -38 -115 c-35
-109 -74 -196 -118 -265 l-19 -30 44 -89 45 -89 -130 -129 -129 -130 -89 45
-89 44 -30 -19 c-69 -44 -156 -83 -265 -118 l-115 -38 -31 -88 -31 -89 -183 0
-183 0 -31 89 -31 88 -115 38 c-109 35 -196 74 -265 118 l-30 19 -89 -44 -89
-45 -129 130 -130 129 45 89 44 89 -19 30 c-44 69 -83 156 -118 265 l-38 115
-88 31 -89 31 0 183 0 183 89 31 88 31 38 115 c35 109 74 196 118 265 l19 30
-44 89 -45 89 130 129 129 130 89 -45 89 -44 30 19 c69 44 156 83 265 118
l115 38 27 73 c14 41 28 82 31 92 5 16 20 17 188 15 l182 -3 31 -89z m-2357
-872 c20 -6 18 -11 -36 -79 -77 -96 -123 -180 -163 -298 l-33 -97 -338 0 -338
0 23 41 c33 60 117 158 181 212 124 107 316 194 472 216 73 10 202 13 232 5z
m346 -84 c56 -22 124 -54 151 -71 l48 -31 -84 -47 c-154 -86 -290 -205 -373
-325 l-38 -56 -36 33 c-20 17 -47 39 -60 48 -23 15 -24 17 -12 65 31 127 148
310 246 387 27 20 50 37 52 37 3 0 50 -18 106 -40z m277 -397 l-1 -148 -67
-42 c-37 -23 -92 -64 -123 -92 -54 -48 -57 -49 -95 -41 -21 5 -74 10 -118 10
-89 0 -88 -4 -33 89 39 66 161 197 229 247 41 31 196 124 205 124 2 0 3 -66 3
-147z m-790 -174 c74 -33 127 -96 143 -169 4 -22 -3 -30 -65 -70 -191 -122
-286 -363 -233 -589 32 -136 140 -283 254 -347 l51 -29 0 -187 0 -188 -382 0
c-381 0 -383 0 -434 24 -59 27 -116 90 -132 145 -7 21 -12 63 -12 94 l0 55
123 4 c104 3 129 8 172 28 95 47 168 144 182 245 l6 45 -80 0 -80 0 -7 -32
c-3 -17 -17 -46 -31 -63 -38 -51 -79 -65 -189 -65 l-96 0 0 144 0 145 -60 32
c-64 34 -89 63 -96 112 -5 28 135 650 151 677 4 6 155 10 388 10 363 0 384 -1
427 -21z m996 -112 c6 -6 19 -37 29 -67 10 -30 35 -94 57 -141 l40 -86 -46
-91 c-25 -51 -46 -97 -46 -104 0 -8 45 -58 100 -113 55 -55 100 -107 100 -117
0 -31 -61 -192 -102 -268 -85 -159 -181 -272 -338 -397 l-104 -83 -188 0 -188
0 0 160 0 160 73 0 c365 1 635 337 552 688 -27 114 -107 242 -192 307 l-43 33
51 38 c90 66 171 105 204 99 16 -3 35 -11 41 -18z m-513 -202 c162 -42 268
-157 299 -325 22 -116 -23 -252 -112 -340 -88 -89 -224 -134 -340 -112 -178
33 -299 154 -332 332 -22 115 23 252 110 339 102 102 240 141 375 106z m147
-1585 c0 -146 -2 -160 -17 -160 -62 -1 -278 -23 -383 -40 -103 -17 -269 -55
-377 -86 l-23 -6 0 226 0 226 400 0 400 0 0 -160z m136 -354 c38 -19 95 -58
127 -86 l57 -52 0 -62 c0 -84 35 -156 100 -202 44 -31 48 -38 54 -86 3 -29 6
-104 6 -165 l0 -113 -1035 0 c-994 0 -1035 1 -1035 18 0 33 32 126 66 194 43
86 143 192 225 241 71 41 363 160 526 213 186 60 430 107 631 123 195 15 203
14 278 -23z m475 -155 c16 -16 29 -39 29 -51 0 -28 -52 -80 -80 -80 -28 0 -80
52 -80 80 0 12 13 35 29 51 37 37 65 37 102 0z m1120 0 c16 -16 29 -39 29 -51
0 -28 -52 -80 -80 -80 -28 0 -80 52 -80 80 0 28 52 80 80 80 12 0 35 -13 51
-29z"/>
<path d="M2960 4320 l0 -80 -80 0 -80 0 0 -80 0 -80 -80 0 -80 0 0 -80 0 -80
80 0 80 0 0 -80 0 -80 -80 0 -80 0 0 -80 0 -80 80 0 80 0 0 -80 0 -80 -80 0
-80 0 0 -80 0 -80 80 0 80 0 0 -80 0 -80 -80 0 -80 0 0 -80 0 -80 80 0 80 0 0
-80 0 -80 80 0 80 0 0 -80 0 -80 80 0 80 0 0 80 0 80 80 0 80 0 0 -80 0 -80
80 0 80 0 0 80 0 80 80 0 80 0 0 -80 0 -80 80 0 80 0 0 80 0 80 80 0 80 0 0
-80 0 -80 80 0 80 0 0 80 0 80 80 0 80 0 0 80 0 80 80 0 80 0 0 80 0 80 -80 0
-80 0 0 80 0 80 80 0 80 0 0 80 0 80 -80 0 -80 0 0 80 0 80 80 0 80 0 0 80 0
80 -80 0 -80 0 0 80 0 80 80 0 80 0 0 80 0 80 -80 0 -80 0 0 80 0 80 -80 0
-80 0 0 80 0 80 -80 0 -80 0 0 -80 0 -80 -80 0 -80 0 0 80 0 80 -80 0 -80 0 0
-80 0 -80 -80 0 -80 0 0 80 0 80 -80 0 -80 0 0 -80 0 -80 -80 0 -80 0 0 80 0
80 -80 0 -80 0 0 -80z m1120 -800 l0 -560 -560 0 -560 0 0 560 0 560 560 0
560 0 0 -560z"/>
<path d="M3120 3520 l0 -400 400 0 400 0 0 400 0 400 -400 0 -400 0 0 -400z
m640 0 l0 -240 -240 0 -240 0 0 240 0 240 240 0 240 0 0 -240z"/>
<path d="M585 2935 c-50 -49 -15 -135 55 -135 41 0 80 39 80 80 0 41 -39 80
-80 80 -19 0 -40 -9 -55 -25z"/>
<path d="M1518 2787 c-109 -41 -172 -151 -154 -271 13 -82 88 -165 170 -187
49 -13 133 -6 173 14 37 19 90 73 111 112 23 42 23 169 0 211 -22 41 -72 90
-111 111 -42 21 -143 27 -189 10z m116 -158 c58 -27 55 -115 -5 -139 -63 -26
-125 36 -100 99 19 44 60 60 105 40z"/>
<path d="M4080 1941 l0 -218 240 -199 240 -199 0 -151 0 -152 -30 -12 c-42
-17 -104 -90 -118 -138 -28 -91 -8 -167 63 -237 102 -103 243 -101 338 5 63
70 81 146 55 232 -14 48 -76 121 -118 138 l-30 12 0 188 0 188 -239 199 -240
198 0 183 -1 182 -80 0 -80 0 0 -219z m611 -1090 c16 -16 29 -39 29 -51 0 -28
-52 -80 -80 -80 -28 0 -80 52 -80 80 0 28 52 80 80 80 12 0 35 -13 51 -29z"/>
<path d="M3120 1660 l0 -180 -160 -120 -160 -120 0 -349 0 -349 -30 -12 c-68
-28 -130 -129 -130 -210 0 -124 116 -240 240 -240 124 0 240 116 240 240 0 81
-62 182 -130 210 l-30 12 0 309 0 309 160 120 160 120 0 220 0 220 -80 0 -80
0 0 -180z m-189 -1289 c16 -16 29 -39 29 -51 0 -28 -52 -80 -80 -80 -28 0 -80
52 -80 80 0 28 52 80 80 80 12 0 35 -13 51 -29z"/>
<path d="M3760 1620 l0 -220 160 -120 160 -120 0 -309 0 -309 -30 -12 c-68
-28 -130 -129 -130 -210 0 -124 116 -240 240 -240 124 0 240 116 240 240 0 81
-62 182 -130 210 l-30 12 0 349 0 349 -160 120 -160 120 0 180 0 180 -80 0
-80 0 0 -220z m451 -1249 c16 -16 29 -39 29 -51 0 -28 -52 -80 -80 -80 -28 0
-80 52 -80 80 0 28 52 80 80 80 12 0 35 -13 51 -29z"/>
</g>
</svg>
