<?xml version="1.0" standalone="no"?>
<!DOCTYPE svg PUBLIC "-//W3C//DTD SVG 20010904//EN"
 "http://www.w3.org/TR/2001/REC-SVG-20010904/DTD/svg10.dtd">
<svg version="1.0" xmlns="http://www.w3.org/2000/svg"
 width="1000.000000pt" height="612.000000pt" viewBox="0 0 1000.000000 612.000000"
 preserveAspectRatio="xMidYMid meet">

<g transform="translate(0.000000,612.000000) scale(0.100000,-0.100000)"
fill="#000000" stroke="none">
<path d="M4721 5814 c-52 -43 -59 -126 -15 -175 15 -17 13 -23 -27 -93 l-43
-76 -62 0 -63 0 -31 -55 c-29 -50 -35 -55 -66 -55 -19 0 -43 6 -54 12 -16 10
-23 10 -35 -3 -9 -9 -13 -23 -9 -32 7 -19 39 -23 49 -7 3 6 24 10 45 10 36 0
40 -3 70 -55 l31 -55 64 0 c69 0 77 6 119 88 17 33 17 35 -11 88 l-28 54 23
42 c57 109 56 108 118 108 62 0 73 8 100 68 l14 32 85 0 85 0 0 -44 c0 -25 6
-48 13 -53 6 -4 52 -10 101 -13 l89 -5 43 -72 c24 -41 38 -75 33 -79 -5 -3
-20 -27 -32 -53 l-23 -47 29 -49 30 -50 -35 -65 -36 -65 -63 -6 -64 -6 72 -1
c39 -1 74 -6 77 -11 11 -17 19 -129 12 -165 l-7 -36 -314 0 -315 0 0 100 c0
55 1 101 3 102 1 1 106 5 232 8 l230 6 -236 2 c-264 2 -249 6 -249 -69 l0 -39
-149 0 c-89 0 -152 4 -156 10 -10 16 -42 12 -49 -7 -4 -9 0 -23 9 -32 12 -13
19 -13 35 -3 13 8 67 12 164 12 l145 0 3 -52 3 -53 313 -5 c172 -3 322 -2 333
2 17 7 19 18 19 116 0 64 -4 112 -11 119 -7 7 -2 28 21 73 28 56 33 61 57 55
36 -9 88 12 118 46 65 78 -4 201 -104 185 l-37 -6 -41 73 c-26 45 -38 76 -32
82 5 5 9 58 9 117 l0 108 -114 0 c-127 0 -126 0 -126 -71 l0 -39 -83 0 -83 0
-17 38 c-32 72 -118 95 -176 46z m577 -86 l3 -98 -95 0 -95 0 -3 96 c-2 53 -1
98 2 100 2 3 45 3 95 2 l90 -3 3 -97z m-443 68 c32 -32 40 -69 25 -107 -17
-40 -46 -59 -91 -59 -48 0 -89 45 -89 97 0 78 101 123 155 69z m-192 -397 l29
-50 -29 -47 c-28 -46 -30 -47 -85 -50 l-56 -3 -26 47 c-14 25 -26 51 -26 56 0
5 12 29 26 54 26 44 26 44 82 44 l57 0 28 -51z m845 16 c32 -37 30 -91 -5
-127 -74 -77 -197 7 -152 105 27 60 113 72 157 22z m-1158 -65 c0 -5 -5 -10
-11 -10 -5 0 -7 5 -4 10 3 6 8 10 11 10 2 0 4 -4 4 -10z m0 -360 c0 -5 -4 -10
-10 -10 -5 0 -10 5 -10 10 0 6 5 10 10 10 6 0 10 -4 10 -10z"/>
<path d="M5146 5771 c-3 -4 3 -16 14 -26 20 -18 20 -18 -1 -41 -28 -30 -10
-37 25 -9 l29 23 -24 31 c-25 32 -34 36 -43 22z"/>
<path d="M5200 5772 c0 -5 9 -17 20 -27 l20 -18 -20 -22 c-30 -32 -11 -40 22
-8 l28 27 -27 28 c-27 28 -43 35 -43 20z"/>
<path d="M4778 5757 c12 -13 22 -27 22 -32 0 -5 -10 -19 -22 -32 -16 -17 -18
-23 -7 -23 9 0 27 13 42 28 l27 28 -28 27 c-35 34 -65 37 -34 4z"/>
<path d="M4563 5386 c-47 -16 -54 -30 -11 -22 34 6 37 5 43 -24 7 -32 25 -42
25 -12 -1 9 -6 29 -13 43 -11 25 -14 26 -44 15z"/>
<path d="M5390 5381 c0 -17 22 -71 30 -71 4 0 24 7 44 15 38 16 51 42 16 31
-11 -3 -28 -9 -39 -12 -14 -4 -20 1 -25 20 -6 24 -26 37 -26 17z"/>
<path d="M6840 5721 c0 -81 3 -100 16 -105 9 -3 74 -6 145 -6 l129 0 0 -38 c0
-35 -3 -38 -40 -50 -31 -9 -46 -10 -62 -1 -26 14 -175 6 -231 -12 l-38 -13 2
-178 1 -178 67 7 c36 5 86 7 111 6 52 -2 177 -1 235 1 22 0 72 -3 110 -7 57
-7 68 -6 57 5 -10 10 -75 13 -287 13 -150 0 -267 4 -259 8 13 7 96 11 264 10
41 0 95 0 120 1 25 0 73 -2 108 -6 l62 -8 0 161 0 160 -34 14 c-19 8 -60 18
-91 21 -43 5 -55 10 -50 21 3 8 8 26 11 39 5 21 12 24 54 24 27 0 52 5 55 10
4 6 -16 10 -54 10 l-60 0 -13 -42 -13 -43 -3 42 -3 42 -147 3 -147 3 -3 83 -3
82 266 0 265 0 0 -30 c0 -16 5 -30 10 -30 11 0 13 39 4 64 -5 14 -40 16 -280
16 l-274 0 0 -99z m184 -217 c14 -5 16 -29 16 -158 l0 -151 -130 0 -131 -1 3
145 3 145 40 12 c42 13 173 18 199 8z m106 -14 c0 -26 17 -26 25 1 7 20 12 21
64 16 31 -3 68 -10 84 -16 l27 -11 0 -143 0 -143 -132 3 -133 3 -3 142 c-2
126 0 144 15 155 26 20 53 16 53 -7z"/>
<path d="M2775 5761 c-20 -18 -232 -68 -249 -59 -20 11 -46 -6 -46 -31 0 -19
-105 -125 -134 -135 -11 -4 -16 -12 -12 -22 7 -18 -13 -165 -24 -178 -5 -4 4
-31 18 -60 16 -31 25 -66 24 -89 -1 -43 18 -58 49 -39 11 7 63 12 129 12 89 0
112 -3 116 -15 4 -8 14 -15 23 -15 21 0 51 -59 51 -99 0 -35 26 -48 51 -25 27
24 94 34 118 18 26 -19 118 -145 122 -169 6 -32 53 -32 67 0 7 14 19 28 27 31
19 8 19 23 0 44 -8 9 -18 30 -21 47 -5 26 -3 31 18 36 12 4 35 7 51 7 16 0 27
5 27 14 0 8 23 35 52 61 41 37 57 45 82 43 24 -2 31 1 34 17 2 11 15 35 29 53
21 28 23 37 14 60 -26 65 -68 225 -64 243 3 12 0 19 -8 19 -7 0 -30 17 -51 37
-54 52 -59 33 -7 -25 38 -42 48 -64 75 -159 17 -60 29 -123 27 -139 -7 -49
-35 -77 -84 -83 -24 -3 -43 -10 -42 -16 3 -15 -66 -82 -103 -100 -49 -23 -73
-19 -110 22 -37 40 -40 50 -22 88 9 21 18 25 51 25 45 0 97 28 116 63 14 26
48 26 85 1 23 -16 46 -2 46 28 0 24 -27 35 -51 20 -34 -22 -59 -15 -59 16 0
41 -32 93 -71 114 -92 49 -189 -14 -189 -124 0 -40 -3 -45 -39 -65 -49 -28
-62 -24 -128 40 -44 42 -50 53 -42 69 8 15 17 18 42 12 18 -3 40 -15 50 -25 9
-10 24 -16 31 -13 23 9 28 36 11 53 -12 13 -19 13 -35 3 -11 -6 -32 -9 -50 -6
-25 5 -30 11 -30 34 0 24 8 30 63 54 72 30 84 32 108 10 37 -34 129 -11 144
36 8 24 47 27 65 5 7 -8 23 -15 36 -15 19 0 24 5 24 25 0 29 -24 43 -45 25 -7
-6 -26 -10 -40 -8 -21 2 -30 11 -41 43 -13 39 -13 40 19 67 41 35 54 35 94 -4
18 -17 36 -28 40 -24 5 4 -6 20 -23 35 -17 15 -33 35 -37 44 -4 11 -18 17 -39
17 -45 0 -269 39 -290 51 -22 11 -31 11 -43 0z m293 -106 c-31 -26 -43 -30
-92 -29 -54 1 -59 3 -106 49 -28 27 -50 52 -50 55 0 4 64 -5 141 -19 l142 -25
-35 -31z m-290 67 c-1 -4 -12 -29 -22 -55 -12 -31 -26 -49 -40 -52 -26 -7
-168 36 -166 50 1 6 45 22 98 37 101 28 136 33 130 20z m81 -56 c52 -53 53
-54 37 -79 -17 -25 -18 -25 -68 -11 -77 20 -83 30 -57 92 12 29 25 52 28 52 4
0 31 -24 60 -54z m-338 1 c-13 -13 -26 -3 -16 12 3 6 11 8 17 5 6 -4 6 -10 -1
-17z m-11 -29 c-2 -29 -42 -153 -51 -159 -16 -9 -68 17 -76 38 -5 12 11 32 53
70 50 45 75 61 74 51z m110 -19 c90 -25 100 -40 69 -100 -16 -32 -25 -39 -48
-39 -16 0 -40 -9 -54 -20 -32 -25 -78 -26 -94 -1 -9 14 -7 35 10 100 12 44 26
81 31 81 5 0 44 -10 86 -21z m401 -30 c46 -46 -7 -135 -68 -113 -50 17 -57 99
-11 122 35 16 56 14 79 -9z m-276 1 c3 -5 -1 -10 -9 -10 -9 0 -16 5 -16 10 0
6 4 10 9 10 6 0 13 -4 16 -10z m91 -31 c36 -9 44 -16 44 -34 0 -18 -14 -28
-74 -55 -74 -32 -75 -32 -95 -13 -20 19 -21 22 -6 57 22 53 54 64 131 45z
m324 -39 c0 -5 -4 -10 -10 -10 -5 0 -10 5 -10 10 0 6 5 10 10 10 6 0 10 -4 10
-10z m-760 -37 c52 -31 47 -48 -39 -118 l-24 -20 7 50 c10 72 17 105 23 105 3
0 18 -8 33 -17z m274 -24 c83 -38 32 -165 -52 -130 -60 25 -61 98 -2 128 30
15 24 15 54 2z m-194 -7 c0 -13 -12 -22 -22 -16 -10 6 -1 24 13 24 5 0 9 -4 9
-8z m56 -30 c7 -4 15 -23 18 -43 7 -46 -7 -59 -77 -70 -51 -8 -132 4 -125 20
7 18 88 82 109 86 12 2 24 7 27 10 8 7 35 6 48 -3z m574 -17 c32 -17 60 -61
60 -95 0 -29 -26 -76 -52 -94 -12 -9 -40 -16 -61 -16 -56 0 -107 52 -107 108
0 85 84 136 160 97z m-266 -66 c-3 -5 -10 -7 -15 -3 -5 3 -7 10 -3 15 3 5 10
7 15 3 5 -3 7 -10 3 -15z m-203 -43 c10 -3 18 -21 23 -52 3 -26 4 -49 1 -52
-6 -7 -159 74 -163 87 -2 5 14 18 34 29 32 17 41 17 63 6 14 -7 33 -15 42 -18z
m-201 -26 c7 -13 2 -24 -20 -45 -33 -31 -41 -28 -58 20 -5 17 -13 37 -17 46
-5 15 -1 15 40 6 25 -6 50 -18 55 -27z m313 -9 c44 -42 49 -51 38 -65 -9 -10
-29 -16 -57 -16 -47 0 -48 1 -60 83 -9 63 11 63 79 -2z m-273 19 c0 -5 -4 -10
-10 -10 -5 0 -10 5 -10 10 0 6 5 10 10 10 6 0 10 -4 10 -10z m800 -10 c0 -5
-4 -10 -10 -10 -5 0 -10 5 -10 10 0 6 5 10 10 10 6 0 10 -4 10 -10z m-710 -50
c32 -16 61 -34 64 -39 7 -11 -209 -10 -220 1 -3 4 4 20 17 37 31 39 63 39 139
1z m402 -5 c29 -25 29 -44 0 -77 -14 -17 -18 -16 -63 9 -27 14 -49 32 -49 39
0 12 56 52 75 53 6 0 22 -10 37 -24z m-138 -36 c-3 -5 -10 -7 -15 -3 -5 3 -7
10 -3 15 3 5 10 7 15 3 5 -3 7 -10 3 -15z m-444 -9 c0 -5 -4 -10 -10 -10 -5 0
-10 5 -10 10 0 6 5 10 10 10 6 0 10 -4 10 -10z m300 -9 c0 -6 -4 -13 -10 -16
-5 -3 -10 1 -10 9 0 9 5 16 10 16 6 0 10 -4 10 -9z m110 0 c0 -16 -41 -101
-49 -101 -9 0 -41 65 -41 85 0 7 6 16 13 18 21 9 77 7 77 -2z m104 -27 c25
-14 46 -29 46 -33 0 -21 -163 -71 -173 -53 -3 4 6 31 19 60 27 61 40 64 108
26z m107 -76 c50 -67 82 -152 64 -170 -3 -3 -17 -3 -31 0 -17 3 -43 29 -81 80
l-56 76 27 23 c36 31 48 29 77 -9z m-251 -34 c0 -8 -4 -12 -10 -9 -5 3 -10 10
-10 16 0 5 5 9 10 9 6 0 10 -7 10 -16z m295 -164 c3 -5 -1 -10 -9 -10 -9 0
-16 5 -16 10 0 6 4 10 9 10 6 0 13 -4 16 -10z"/>
<path d="M2951 5546 c-10 -11 -8 -16 9 -21 26 -8 35 -1 27 20 -8 19 -21 19
-36 1z"/>
<path d="M2637 5403 c-12 -11 -8 -23 8 -23 8 0 15 7 15 15 0 16 -12 20 -23 8z"/>
<path d="M3040 5310 c0 -15 5 -20 18 -18 9 2 17 10 17 18 0 8 -8 16 -17 18
-13 2 -18 -3 -18 -18z"/>
<path d="M7488 5739 c-21 -11 -38 -24 -38 -29 0 -6 -7 -10 -15 -10 -8 0 -15 3
-15 8 0 4 -15 7 -33 7 -42 0 -72 -30 -72 -70 0 -33 38 -80 56 -70 6 4 9 -2 8
-17 -4 -47 2 -65 46 -138 45 -76 55 -114 33 -124 -10 -5 -10 -7 0 -12 8 -4 12
-31 12 -85 l0 -80 118 3 117 3 3 78 c2 42 7 77 12 77 6 0 10 5 10 10 0 6 -7
10 -15 10 -23 0 -10 43 38 125 60 103 62 203 6 264 -30 32 -35 18 -8 -21 20
-27 24 -45 24 -103 0 -65 -3 -74 -42 -135 -24 -36 -43 -73 -43 -82 0 -44 -8
-48 -106 -48 -91 0 -94 1 -94 23 0 12 -20 56 -44 97 -45 76 -66 158 -38 153 6
-2 12 2 12 7 0 6 7 10 16 10 8 0 12 5 9 10 -3 6 -1 10 5 10 7 0 10 7 6 15 -3
8 -1 15 4 15 11 0 1 32 -13 41 -5 4 12 19 38 34 56 33 132 38 184 12 38 -19
51 -21 51 -9 0 5 -16 16 -35 25 -50 24 -149 22 -197 -4z m-56 -75 c14 -29 5
-51 -27 -66 -50 -23 -90 53 -44 85 26 19 58 10 71 -19z m248 -394 c0 -6 -38
-10 -95 -10 -57 0 -95 4 -95 10 0 6 38 10 95 10 57 0 95 -4 95 -10z m5 -40
c-3 -6 -48 -10 -101 -10 -56 0 -94 4 -94 10 0 6 40 10 101 10 64 0 98 -4 94
-10z m-5 -40 c0 -6 -38 -10 -95 -10 -57 0 -95 4 -95 10 0 6 38 10 95 10 57 0
95 -4 95 -10z m5 -40 c4 -6 -30 -10 -94 -10 -61 0 -101 4 -101 10 0 6 38 10
94 10 53 0 98 -4 101 -10z"/>
<path d="M7380 5650 c0 -5 5 -10 11 -10 5 0 7 5 4 10 -3 6 -8 10 -11 10 -2 0
-4 -4 -4 -10z"/>
<path d="M6946 5703 c-11 -11 -6 -23 9 -23 8 0 15 4 15 9 0 13 -16 22 -24 14z"/>
<path d="M6996 5703 c-11 -11 -6 -23 9 -23 8 0 15 4 15 9 0 13 -16 22 -24 14z"/>
<path d="M7046 5703 c-11 -11 -6 -23 9 -23 8 0 15 4 15 9 0 13 -16 22 -24 14z"/>
<path d="M7580 5675 c0 -18 -21 -20 -38 -3 -9 9 -12 7 -12 -11 0 -20 -4 -22
-25 -17 -25 6 -35 -7 -15 -19 15 -9 2 -25 -15 -18 -18 6 -20 -13 -3 -23 7 -5
5 -11 -7 -21 -18 -13 -18 -13 0 -26 12 -10 14 -16 7 -21 -16 -10 -15 -27 1
-23 7 1 12 -7 11 -20 0 -17 5 -22 20 -20 11 1 21 -4 22 -10 3 -26 4 -27 16
-15 16 16 28 15 28 -3 0 -20 10 -19 26 3 10 14 15 15 25 5 18 -18 30 -16 27 5
-2 12 3 16 19 15 18 -2 22 2 20 20 -1 16 3 21 16 19 9 -2 17 2 17 8 0 5 -4 10
-10 10 -16 0 -12 22 8 36 16 13 16 13 0 14 -19 0 -26 30 -8 30 6 0 10 5 10 10
0 6 -9 10 -21 10 -16 0 -19 4 -14 20 5 16 2 20 -17 18 -17 -2 -22 1 -20 15 2
9 -2 17 -8 17 -5 0 -10 -4 -10 -10 0 -5 -7 -10 -15 -10 -8 0 -15 7 -15 15 0 8
-4 15 -10 15 -5 0 -10 -7 -10 -15z m71 -64 c20 -20 29 -39 29 -61 0 -45 -47
-90 -94 -90 -53 0 -91 37 -91 90 0 84 95 121 156 61z"/>
<path d="M7575 5560 c-8 -13 4 -32 16 -25 12 8 12 35 0 35 -6 0 -13 -4 -16
-10z"/>
<path d="M4860 5581 c0 -6 5 -13 10 -16 6 -3 10 1 10 9 0 9 -4 16 -10 16 -5 0
-10 -4 -10 -9z"/>
<path d="M4890 5536 c0 -9 5 -16 10 -16 6 0 10 4 10 9 0 6 -4 13 -10 16 -5 3
-10 -1 -10 -9z"/>
<path d="M4910 5490 c0 -5 5 -10 10 -10 6 0 10 5 10 10 0 6 -4 10 -10 10 -5 0
-10 -4 -10 -10z"/>
<path d="M4937 5443 c3 -7 0 -13 -6 -13 -16 0 -41 -55 -41 -90 0 -89 81 -137
170 -100 22 9 38 27 53 59 22 45 22 47 5 84 -25 52 -70 77 -134 74 -36 -1 -50
-6 -47 -14z m135 -32 c25 -22 32 -36 32 -66 0 -30 -7 -44 -32 -66 -42 -38 -82
-38 -121 -1 -46 41 -45 91 0 133 40 38 79 38 121 0z"/>
<path d="M4987 5356 c-8 -20 20 -43 35 -28 14 14 3 42 -16 42 -7 0 -16 -6 -19
-14z"/>
<path d="M5165 5340 c4 -6 11 -8 16 -5 14 9 11 15 -7 15 -8 0 -12 -5 -9 -10z"/>
<path d="M5215 5340 c4 -6 11 -8 16 -5 14 9 11 15 -7 15 -8 0 -12 -5 -9 -10z"/>
<path d="M5255 5340 c3 -5 10 -10 16 -10 5 0 9 5 9 10 0 6 -7 10 -16 10 -8 0
-12 -4 -9 -10z"/>
<path d="M6813 5130 c-24 -3 -45 -8 -47 -11 -2 -2 128 -4 289 -4 190 0 288 3
277 9 -20 11 -456 16 -519 6z"/>
<path d="M6850 5090 c0 -5 5 -10 10 -10 6 0 10 5 10 10 0 6 -4 10 -10 10 -5 0
-10 -4 -10 -10z"/>
<path d="M7630 5090 c0 -5 5 -10 10 -10 6 0 10 5 10 10 0 6 -4 10 -10 10 -5 0
-10 -4 -10 -10z"/>
<path d="M7630 5060 c0 -5 5 -10 11 -10 5 0 7 5 4 10 -3 6 -8 10 -11 10 -2 0
-4 -4 -4 -10z"/>
<path d="M4922 5017 c-28 -30 -28 -38 3 -67 33 -31 45 -17 15 15 l-24 25 22
16 c22 15 29 34 14 34 -5 0 -18 -10 -30 -23z"/>
<path d="M4980 5015 l-24 -26 32 -31 c36 -37 57 -30 22 7 l-23 25 23 25 c17
18 20 25 8 25 -8 0 -25 -11 -38 -25z"/>
<path d="M5043 5016 l-28 -25 32 -32 c38 -38 58 -31 22 7 l-24 26 23 18 c12
10 22 21 22 24 0 13 -20 5 -47 -18z"/>
<path d="M6975 5029 c-4 -6 -7 -48 -7 -94 0 -46 3 -88 7 -94 9 -16 537 -15
553 1 7 7 12 43 12 93 0 50 -5 86 -12 93 -15 15 -138 16 -138 2 0 -6 28 -10
65 -10 l65 0 0 -85 0 -85 -265 0 -265 0 0 85 0 85 195 0 c123 0 195 4 195 10
0 14 -397 14 -405 -1z"/>
<path d="M6850 4990 c0 -5 5 -10 10 -10 6 0 10 5 10 10 0 6 -4 10 -10 10 -5 0
-10 -4 -10 -10z"/>
<path d="M7630 4990 c0 -5 5 -10 10 -10 6 0 10 5 10 10 0 6 -4 10 -10 10 -5 0
-10 -4 -10 -10z"/>
<path d="M7180 4973 c0 -3 7 -15 17 -25 15 -17 15 -19 -2 -38 -26 -29 -9 -38
20 -10 30 28 31 41 7 63 -19 17 -42 23 -42 10z"/>
<path d="M7248 4957 c22 -24 22 -24 2 -42 -11 -10 -17 -22 -14 -27 4 -5 19 3
35 18 l29 28 -22 23 c-12 13 -28 23 -36 23 -12 0 -10 -6 6 -23z"/>
<path d="M7290 4971 c0 -5 7 -14 15 -21 14 -12 14 -15 -1 -31 -26 -29 -12 -43
19 -19 33 26 34 36 5 61 -25 20 -38 24 -38 10z"/>
<path d="M6854 4954 c3 -9 6 -18 6 -20 0 -2 4 -4 9 -4 5 0 7 9 4 20 -3 11 -10
20 -15 20 -6 0 -7 -7 -4 -16z"/>
<path d="M7627 4950 c-3 -11 -1 -20 4 -20 5 0 9 2 9 4 0 2 3 11 6 20 3 9 2 16
-4 16 -5 0 -12 -9 -15 -20z"/>
<path d="M6895 4940 c-3 -5 -1 -10 4 -10 6 0 11 5 11 10 0 6 -2 10 -4 10 -3 0
-8 -4 -11 -10z"/>
<path d="M6930 4940 c0 -5 5 -10 11 -10 5 0 7 5 4 10 -3 6 -8 10 -11 10 -2 0
-4 -4 -4 -10z"/>
<path d="M8945 4708 c-2 -7 -5 -19 -7 -26 -2 -7 -41 -55 -88 -107 l-85 -95
-65 0 -65 -1 -65 -84 c-35 -47 -69 -85 -75 -86 -5 0 -28 0 -50 1 -32 1 -45 -4
-66 -27 -45 -49 -110 -144 -107 -155 2 -6 33 28 68 76 l64 86 56 0 55 0 65 85
65 85 65 1 65 1 89 99 c53 59 96 99 108 99 24 0 34 26 18 45 -15 18 -39 20
-45 3z m35 -18 c0 -5 -4 -10 -10 -10 -5 0 -10 5 -10 10 0 6 5 10 10 10 6 0 10
-4 10 -10z"/>
<path d="M1233 4670 c-163 -34 -262 -147 -301 -341 -14 -73 -14 -81 2 -118
l18 -38 -42 -91 c-23 -49 -40 -98 -38 -108 1 -11 18 -25 36 -33 29 -13 32 -18
26 -46 -4 -24 -2 -34 10 -38 12 -5 15 -14 10 -31 -3 -14 1 -37 10 -54 9 -17
16 -44 16 -60 0 -21 7 -32 25 -40 53 -24 86 -14 232 68 l142 80 7 45 c3 25 10
45 14 45 8 0 130 -196 129 -208 -4 -23 4 -32 26 -32 19 0 25 5 25 21 0 11 -8
23 -17 26 -10 2 -51 58 -91 124 -40 66 -77 117 -81 114 -5 -2 -12 -26 -16 -51
-3 -26 -9 -53 -12 -60 -2 -7 -65 -47 -139 -89 -117 -67 -138 -76 -176 -73 -41
3 -43 5 -49 40 -3 20 -13 47 -21 60 -14 21 -14 26 -1 43 12 18 12 22 -8 38
-17 13 -20 24 -15 47 5 27 2 31 -29 44 -19 8 -35 22 -35 30 0 9 17 49 37 90
29 59 40 73 50 64 18 -15 100 -4 122 16 25 23 43 20 76 -14 l28 -29 49 26 c46
25 48 28 48 70 0 23 5 43 10 43 6 0 10 -22 10 -48 0 -48 0 -49 -47 -71 -59
-27 -100 -57 -91 -67 4 -3 42 13 85 37 l77 44 -3 47 c-1 25 2 49 8 53 7 4 11
-15 11 -57 l0 -63 -99 -55 c-96 -53 -99 -55 -110 -101 -13 -49 -38 -69 -87
-69 -31 0 -42 -26 -20 -48 15 -15 18 -14 47 16 17 17 38 34 48 37 10 3 24 25
32 51 13 44 19 49 109 99 l95 52 3 72 c3 85 22 96 22 13 0 -46 4 -60 20 -70
17 -10 20 -23 20 -81 0 -68 2 -72 60 -166 33 -53 58 -100 55 -105 -8 -13 24
-40 40 -34 21 8 19 45 -3 50 -9 3 -42 44 -71 92 -52 83 -55 91 -59 167 -3 64
-8 82 -23 93 -14 10 -19 25 -19 62 0 63 18 75 22 15 4 -58 22 -63 26 -7 2 23
7 42 13 42 5 0 9 -52 9 -122 l0 -121 80 -123 c44 -68 80 -133 80 -144 0 -27
27 -37 47 -17 13 13 14 19 3 31 -7 9 -18 16 -24 17 -6 0 -44 52 -85 115 l-73
114 -5 121 c-3 81 -1 131 7 150 12 28 16 29 74 29 35 0 67 -5 74 -12 16 -16
47 13 39 36 -7 16 -42 22 -51 8 -7 -12 -126 -14 -126 -2 0 6 14 10 30 10 17 0
30 5 30 10 0 6 -13 10 -30 10 -16 0 -30 5 -30 10 0 6 9 10 20 10 11 0 27 11
35 24 9 13 27 27 41 30 29 8 33 41 6 55 -21 11 -42 -3 -42 -26 0 -20 -30 -63
-44 -63 -7 0 -19 11 -26 25 -11 20 -10 28 4 49 9 14 16 31 16 38 -1 18 -50
-39 -50 -58 0 -8 -4 -14 -10 -14 -6 0 -10 26 -10 59 0 33 5 63 10 66 16 10 12
42 -7 49 -9 4 -23 0 -32 -9 -13 -12 -13 -19 -3 -35 17 -27 16 -133 0 -127 -8
2 -13 20 -13 42 0 22 -5 40 -12 42 -9 3 -13 -9 -13 -43 0 -26 -3 -44 -7 -40
-5 4 -8 55 -9 112 0 90 2 104 16 104 26 0 123 -30 148 -47 13 -8 26 -12 29 -9
11 11 -10 26 -65 47 -64 24 -208 34 -279 19z m133 -41 c-3 -17 -7 -68 -8 -113
-1 -69 -2 -72 -5 -23 -5 73 -23 75 -23 2 0 -30 -4 -55 -10 -55 -5 0 -10 7 -10
15 0 9 -10 35 -22 58 -11 23 -21 53 -22 67 -1 20 -6 25 -26 25 -33 0 -43 -44
-12 -52 12 -3 29 -24 41 -54 20 -46 21 -50 5 -74 -22 -33 -31 -32 -51 10 -16
33 -20 35 -64 35 -26 0 -51 5 -54 10 -10 16 -45 12 -52 -6 -3 -8 2 -23 11 -32
13 -14 20 -14 36 -4 11 6 36 12 55 12 31 0 38 -5 52 -35 9 -19 22 -35 29 -35
7 0 16 -5 19 -11 5 -7 -6 -9 -31 -7 -34 3 -40 6 -44 33 -4 24 -10 30 -30 30
-33 0 -42 -44 -11 -52 11 -3 22 -11 25 -19 4 -9 21 -14 51 -14 25 0 45 -4 45
-10 0 -15 -196 -13 -220 2 -16 10 -23 10 -37 -5 -16 -16 -16 -18 0 -34 14 -15
21 -15 37 -5 12 7 57 12 117 12 97 0 98 -1 111 -27 6 -15 12 -41 12 -59 0 -26
-7 -36 -36 -54 l-37 -21 -26 25 c-25 24 -34 26 -118 26 -87 0 -91 1 -108 27
-16 24 -17 35 -7 99 33 212 173 341 371 343 l54 1 -7 -31z m134 -280 l0 -69
-105 0 -105 0 0 63 c0 35 3 66 6 69 3 4 50 6 105 6 l99 1 0 -70z m-458 -192
c-31 -7 -46 -7 -54 1 -9 9 1 12 43 11 l54 -1 -43 -11z m28 -287 c0 -5 -4 -10
-10 -10 -5 0 -10 5 -10 10 0 6 5 10 10 10 6 0 10 -4 10 -10z m520 -110 c0 -5
-2 -10 -4 -10 -3 0 -8 5 -11 10 -3 6 -1 10 4 10 6 0 11 -4 11 -10z m100 -20
c0 -5 -4 -10 -10 -10 -5 0 -10 5 -10 10 0 6 5 10 10 10 6 0 10 -4 10 -10z"/>
<path d="M1374 4365 c-7 -18 3 -35 21 -35 21 0 28 19 15 35 -16 19 -29 19 -36
0z"/>
<path d="M1600 4586 c0 -2 17 -21 37 -42 73 -77 112 -212 93 -315 -6 -29 -14
-56 -18 -60 -4 -3 -44 -26 -89 -50 -60 -31 -83 -49 -83 -63 0 -10 27 -63 60
-116 33 -53 60 -107 60 -119 0 -17 5 -22 23 -19 30 4 36 44 8 53 -11 3 -35 31
-53 61 -18 30 -43 72 -55 92 -13 20 -23 40 -23 44 0 4 33 25 73 47 110 61 112
64 112 190 0 95 -3 112 -28 166 -15 33 -44 77 -65 98 -31 32 -52 45 -52 33z"/>
<path d="M8840 4461 c-7 -14 -10 -142 -10 -384 l1 -364 64 -2 c114 -4 106 -37
103 392 l-3 372 -72 3 c-63 3 -73 1 -83 -17z m135 -362 l0 -363 -50 3 c-27 1
-53 5 -57 7 -8 5 -11 707 -4 715 2 2 28 3 58 3 l53 -2 0 -363z"/>
<path d="M8647 4334 c-4 -4 -7 -143 -7 -310 0 -266 2 -303 16 -308 30 -12 121
-6 133 8 8 9 11 100 9 312 l-3 299 -70 3 c-39 1 -74 0 -78 -4z m131 -306 l2
-298 -60 0 -60 0 -1 275 c-1 151 -2 281 -3 288 -4 27 17 38 68 35 l51 -3 3
-297z"/>
<path d="M8454 4187 c-2 -7 -3 -116 -2 -242 l3 -230 70 0 70 0 3 243 2 242
-70 0 c-48 0 -72 -4 -76 -13z m124 -5 c9 -7 12 -59 10 -228 l-3 -219 -57 -3
-58 -3 0 224 c0 123 3 227 7 230 9 10 85 8 101 -1z"/>
<path d="M8275 4058 c-3 -8 -4 -88 -3 -178 l3 -165 65 0 65 0 0 175 0 175 -63
3 c-45 2 -64 -1 -67 -10z m115 -168 l0 -160 -50 0 -50 0 0 160 0 160 50 0 50
0 0 -160z"/>
<path d="M8565 2927 c-113 -38 -193 -105 -240 -202 -40 -82 -47 -202 -16 -294
21 -60 21 -64 5 -82 -10 -11 -14 -22 -10 -27 4 -4 14 2 22 13 15 20 16 19 40
-10 l24 -30 -34 -3 c-52 -5 -57 -17 -54 -143 l3 -114 50 0 50 0 3 118 c3 153
22 146 22 -9 l0 -115 53 3 52 3 3 78 c2 42 7 77 12 77 5 0 10 -35 12 -77 l3
-78 34 -3 c19 -2 44 -1 57 2 22 6 24 11 24 71 0 86 18 84 22 -2 l3 -68 34 -3
c19 -2 44 -1 57 2 23 6 24 11 24 89 0 80 1 83 28 99 l28 17 95 -95 c52 -53
102 -100 112 -105 14 -8 27 0 67 37 28 26 50 53 50 61 0 7 -45 60 -101 116
-64 65 -98 107 -95 117 2 8 13 35 22 60 27 68 25 199 -5 272 -32 81 -107 160
-189 200 -55 26 -82 32 -147 35 -48 2 -96 -2 -120 -10z m258 -41 c73 -35 138
-101 174 -174 25 -50 28 -68 28 -152 0 -84 -3 -102 -28 -152 -37 -76 -104
-143 -175 -176 -50 -24 -69 -27 -157 -27 -95 0 -103 2 -163 34 -64 35 -142
109 -142 136 0 24 9 18 64 -38 71 -74 131 -101 233 -105 71 -4 88 -1 142 23
71 32 142 102 174 173 34 73 31 198 -6 273 -29 60 -105 139 -133 139 -12 0 -6
-9 18 -27 109 -85 156 -231 113 -353 -20 -55 -75 -130 -114 -153 l-31 -18 0
139 c0 152 0 152 -60 152 -61 0 -60 2 -60 -171 0 -184 -18 -221 -22 -46 l-3
112 -55 0 -55 0 -3 -102 c-3 -106 -22 -147 -22 -48 l0 55 -49 0 c-28 0 -53 -5
-57 -11 -6 -10 -44 36 -44 54 0 5 23 7 52 5 51 -3 52 -2 58 27 6 28 52 120 69
138 10 10 32 -16 35 -40 3 -21 46 -31 46 -11 0 19 69 148 80 148 10 0 37 -41
42 -65 6 -36 39 -23 54 20 7 22 24 48 38 58 27 20 25 47 -4 47 -11 0 -20 -10
-24 -27 -3 -16 -14 -39 -25 -53 -20 -25 -20 -25 -36 -5 -8 11 -18 33 -21 48
-5 21 -12 27 -28 25 -13 -2 -21 -11 -22 -24 -1 -24 -65 -144 -76 -144 -4 0
-17 18 -28 40 -22 43 -37 51 -46 23 -15 -50 -72 -157 -89 -169 -11 -8 -37 -14
-57 -14 -35 0 -39 3 -45 30 -3 17 -10 33 -16 37 -6 4 -7 -6 -3 -26 3 -17 9
-44 12 -61 8 -39 -13 -40 -27 -2 -64 167 7 362 162 446 71 39 100 46 195 42
65 -2 93 -8 137 -30z m-23 -470 c0 -141 0 -144 -22 -150 -59 -15 -58 -18 -58
137 0 79 3 147 7 150 3 4 21 7 40 7 l33 0 0 -144z m-140 -61 c0 -104 0 -105
-24 -105 -54 0 -56 5 -56 111 l0 99 40 0 40 0 0 -105z m-140 -30 c0 -19 -2
-35 -5 -35 -3 0 -19 10 -35 22 -41 30 -39 48 5 48 33 0 35 -2 35 -35z m620
-230 l-45 -45 -100 100 -99 99 45 46 44 45 100 -100 100 -100 -45 -45z m-750
64 l0 -110 -32 3 -33 3 -3 84 c-5 113 1 131 38 131 l30 0 0 -111z m130 -31 l0
-78 -35 0 -35 0 0 95 0 95 35 -17 35 -17 0 -78z m280 -2 l0 -74 -37 2 -38 1
-3 62 -3 61 38 10 c21 5 39 10 41 11 1 1 2 -32 2 -73z m-140 -12 l0 -65 -37 3
-38 3 -3 63 -3 62 41 0 40 0 0 -66z"/>
<path d="M8563 2872 c-126 -45 -201 -135 -222 -265 -9 -53 4 -76 14 -25 15 80
29 116 61 161 38 52 107 101 164 117 47 13 139 13 178 -1 42 -14 65 -5 27 11
-53 22 -164 23 -222 2z"/>
<path d="M1118 2915 c-52 -29 -72 -96 -43 -145 8 -14 17 -30 21 -37 3 -7 -13
-46 -37 -87 -41 -72 -43 -74 -74 -69 -64 10 -125 -47 -125 -118 0 -22 10 -41
35 -66 32 -32 40 -35 79 -31 l44 5 42 -74 42 -73 -21 -43 c-30 -62 -27 -93 13
-133 47 -47 100 -48 151 -3 19 17 35 40 35 50 0 17 8 19 90 19 l90 0 14 -34
c26 -63 92 -84 157 -50 56 29 72 117 29 161 -17 17 -16 21 24 95 40 76 42 78
79 78 69 0 127 50 127 110 0 61 -63 114 -126 108 -34 -3 -36 -1 -78 73 l-43
76 19 27 c38 52 21 133 -34 162 -58 30 -124 8 -152 -51 l-17 -35 -89 0 c-73 0
-90 3 -90 15 0 8 -12 29 -27 45 -34 38 -93 49 -135 25z m116 -31 c37 -38 36
-86 -4 -126 -27 -26 -36 -30 -67 -25 -52 9 -78 38 -78 88 0 80 92 119 149 63z
m401 2 c33 -33 40 -67 21 -104 -29 -56 -103 -66 -146 -20 -23 25 -27 85 -7
110 34 43 96 50 132 14z m-162 -111 c21 -43 68 -69 117 -62 36 5 36 4 79 -71
35 -61 41 -79 32 -91 -6 -9 -18 -31 -27 -49 -14 -31 -18 -33 -57 -30 l-42 3 2
80 c1 44 -2 86 -6 94 -10 15 -69 25 -91 14 -9 -4 2 -9 29 -12 l45 -6 1 -155
c1 -85 0 -165 -2 -177 -5 -23 -7 -23 -179 -23 l-174 0 0 180 0 180 125 0 c77
0 125 4 125 10 0 12 -239 14 -257 2 -8 -5 -13 -41 -15 -97 l-3 -90 -47 -3
c-42 -3 -48 -1 -48 16 0 11 -9 31 -20 45 -11 14 -20 28 -20 32 0 4 18 39 41
79 l40 71 51 0 c44 0 53 4 79 33 16 18 29 39 29 47 0 12 17 15 88 15 l88 0 17
-35z m-442 -244 c39 -40 39 -82 0 -122 -72 -72 -183 10 -136 101 29 56 91 65
136 21z m810 0 c20 -20 29 -39 29 -61 0 -43 -47 -90 -90 -90 -43 0 -90 47 -90
90 0 22 9 41 29 61 20 20 39 29 61 29 22 0 41 -9 61 -29z m-669 -80 c4 -1 9
-40 10 -88 l3 -88 187 -3 c217 -3 204 -9 204 105 l-1 73 46 0 c42 0 48 -3 59
-30 7 -16 16 -30 21 -30 16 0 10 -19 -32 -92 l-40 -73 -49 0 c-52 0 -93 -27
-111 -72 -8 -22 -14 -23 -99 -23 -73 0 -90 3 -90 15 0 8 -13 29 -29 47 -26 29
-35 33 -79 32 l-50 0 -42 73 c-23 41 -39 79 -36 86 38 73 47 77 128 68z m57
-267 c65 -54 24 -154 -62 -154 -32 0 -73 33 -81 66 -14 54 33 113 91 114 12 0
35 -12 52 -26z m390 11 c39 -20 57 -66 41 -105 -23 -55 -75 -73 -129 -45 -33
16 -41 33 -41 80 0 25 8 40 31 59 35 30 58 32 98 11z"/>
<path d="M1150 2855 c-18 -21 -4 -65 20 -65 24 0 38 44 20 65 -7 8 -16 15 -20
15 -4 0 -13 -7 -20 -15z m30 -30 c0 -14 -4 -25 -10 -25 -5 0 -10 11 -10 25 0
14 5 25 10 25 6 0 10 -11 10 -25z"/>
<path d="M1557 2856 c-12 -9 -14 -16 -8 -21 6 -3 11 -15 11 -26 0 -10 5 -19
10 -19 6 0 10 18 10 40 0 22 -1 40 -2 40 -2 0 -11 -7 -21 -14z"/>
<path d="M1234 2596 c-10 -25 0 -61 18 -64 19 -4 32 29 23 58 -7 23 -33 27
-41 6z m26 -21 c0 -14 -4 -25 -10 -25 -11 0 -14 33 -3 43 11 11 13 8 13 -18z"/>
<path d="M1300 2595 c-9 -10 -9 -15 -1 -15 6 0 11 -12 11 -26 0 -14 4 -23 10
-19 12 8 13 75 1 75 -5 0 -14 -7 -21 -15z"/>
<path d="M1354 2596 c-11 -28 0 -61 21 -61 16 0 20 7 20 35 0 25 -5 36 -18 38
-9 2 -20 -3 -23 -12z m25 -28 c0 -27 -2 -29 -8 -13 -5 11 -6 26 -4 33 8 21 13
13 12 -20z"/>
<path d="M1414 2596 c-10 -27 5 -68 24 -64 24 5 24 71 -1 76 -9 2 -20 -4 -23
-12z m36 -26 c0 -10 -4 -22 -10 -25 -6 -4 -10 7 -10 25 0 18 4 29 10 25 6 -3
10 -15 10 -25z"/>
<path d="M1490 2595 c-8 -9 -8 -15 -2 -15 6 0 13 -12 15 -27 3 -20 4 -15 6 15
1 46 -1 49 -19 27z"/>
<path d="M1230 2466 c0 -37 21 -54 40 -31 18 21 4 65 -20 65 -16 0 -20 -7 -20
-34z m30 -1 c0 -14 -4 -25 -10 -25 -5 0 -10 11 -10 25 0 14 5 25 10 25 6 0 10
-11 10 -25z"/>
<path d="M1297 2494 c-11 -11 -8 -62 3 -69 18 -11 41 17 38 44 -3 25 -27 39
-41 25z m23 -29 c0 -14 -4 -25 -10 -25 -11 0 -14 33 -3 43 11 11 13 8 13 -18z"/>
<path d="M1368 2495 c-8 -8 3 -65 13 -65 5 0 9 16 9 35 0 32 -8 43 -22 30z"/>
<path d="M1417 2494 c-12 -12 -8 -51 6 -62 20 -17 39 2 35 34 -3 27 -26 43
-41 28z m33 -35 c0 -10 -4 -19 -10 -19 -5 0 -10 12 -10 26 0 14 4 23 10 19 6
-3 10 -15 10 -26z"/>
<path d="M1474 2475 c-7 -29 11 -56 32 -48 8 3 14 19 14 39 0 27 -4 34 -20 34
-13 0 -22 -9 -26 -25z m36 -10 c0 -14 -4 -25 -10 -25 -5 0 -10 11 -10 25 0 14
5 25 10 25 6 0 10 -11 10 -25z"/>
<path d="M1240 2385 c-9 -10 -9 -15 -1 -15 6 0 11 -12 11 -27 0 -35 9 -25 14
16 4 36 -6 47 -24 26z"/>
<path d="M1294 2386 c-10 -25 0 -61 18 -64 19 -4 32 29 23 58 -7 23 -33 27
-41 6z m23 -43 c-4 -17 -4 -17 -12 0 -4 9 -4 25 0 35 8 16 8 16 12 0 3 -10 3
-26 0 -35z"/>
<path d="M1354 2386 c-10 -26 0 -61 19 -64 21 -4 31 19 23 53 -7 27 -33 34
-42 11z m26 -28 c-1 -28 -2 -30 -11 -15 -6 10 -8 25 -5 33 9 24 16 16 16 -18z"/>
<path d="M1420 2385 c-9 -10 -9 -15 -1 -15 6 0 11 -11 11 -25 0 -14 5 -25 10
-25 6 0 10 18 10 40 0 42 -9 50 -30 25z"/>
<path d="M1474 2386 c-11 -28 0 -61 21 -61 16 0 20 7 20 35 0 25 -5 36 -18 38
-9 2 -20 -3 -23 -12z m36 -26 c0 -10 -4 -22 -10 -25 -6 -4 -10 7 -10 25 0 18
4 29 10 25 6 -3 10 -15 10 -25z"/>
<path d="M950 2495 c-9 -10 -9 -15 -1 -15 6 0 11 -11 11 -25 0 -14 5 -25 10
-25 6 0 10 18 10 40 0 42 -9 50 -30 25z"/>
<path d="M1757 2503 c-12 -12 -7 -50 8 -63 21 -17 35 -3 35 36 0 26 -4 34 -18
34 -10 0 -22 -3 -25 -7z m33 -34 c0 -10 -4 -19 -10 -19 -5 0 -10 12 -10 26 0
14 4 23 10 19 6 -3 10 -15 10 -26z"/>
<path d="M1162 2148 c-15 -15 -16 -32 -2 -23 6 4 10 -5 10 -21 0 -37 10 -25
15 20 5 37 -2 45 -23 24z"/>
<path d="M1554 2146 c-11 -28 0 -61 21 -61 16 0 20 7 20 35 0 25 -5 36 -18 38
-9 2 -20 -3 -23 -12z m25 -33 c0 -25 -1 -25 -8 -8 -5 11 -7 23 -4 28 8 14 13
7 12 -20z"/>
<path d="M6878 2008 c-18 -34 -32 -67 -30 -73 9 -26 75 -125 80 -120 4 3 -9
34 -28 69 l-34 63 32 56 c35 62 37 67 23 67 -6 0 -25 -28 -43 -62z"/>
<path d="M7089 2027 c-54 -87 -54 -81 -14 -152 33 -60 38 -65 70 -65 l35 0 0
-50 0 -50 -174 0 c-139 0 -176 -3 -185 -14 -13 -16 -18 -237 -6 -256 10 -15
737 -14 753 2 8 8 12 50 12 124 0 143 -1 144 -116 144 -112 0 -109 -18 4 -22
l87 -3 0 -115 0 -115 -363 -3 -363 -2 3 117 3 118 263 3 c163 1 262 6 262 12
0 6 -34 10 -80 10 l-80 0 0 50 c0 50 0 50 33 50 30 0 36 6 70 63 20 35 37 67
37 70 0 3 -16 33 -35 66 l-36 61 -77 0 -77 0 -26 -43z m201 -32 l30 -53 -32
-54 -32 -54 -50 2 c-28 2 -56 3 -62 3 -6 1 -25 24 -43 52 l-31 51 30 53 c28
48 35 54 68 57 75 6 90 -1 122 -57z"/>
<path d="M7174 1955 c-4 -9 -2 -21 4 -27 15 -15 44 -1 40 19 -4 23 -36 29 -44
8z"/>
<path d="M7450 2064 c0 -3 14 -31 32 -63 l31 -57 -36 -62 c-20 -34 -33 -64
-28 -66 4 -3 24 25 45 61 l38 66 -33 63 c-29 55 -49 78 -49 58z"/>
<path d="M4654 2046 c-30 -13 -64 -67 -64 -101 0 -25 27 -72 52 -89 12 -9 43
-16 68 -16 42 -1 48 -4 82 -49 48 -62 53 -77 33 -85 -11 -4 -28 4 -47 19 -21
18 -41 25 -72 25 -48 0 -80 -19 -101 -60 -23 -45 -18 -77 18 -115 43 -48 89
-55 137 -23 28 20 41 23 58 15 30 -14 28 -24 -17 -82 -38 -47 -42 -49 -85 -46
-54 3 -81 -10 -106 -52 -24 -39 -25 -59 -4 -102 45 -95 186 -73 203 32 6 35 9
37 75 59 l69 24 34 -30 c74 -66 183 -19 183 79 0 25 5 29 60 46 52 16 65 16
99 5 69 -22 144 8 177 72 23 44 14 121 -16 153 -31 33 -36 25 -11 -16 68 -111
-45 -233 -160 -173 -34 17 -59 66 -59 115 0 23 10 42 40 72 40 39 42 40 95 34
55 -6 75 5 33 17 -41 11 -83 6 -118 -13 -34 -18 -36 -18 -86 1 -48 18 -52 23
-58 60 -10 61 -52 98 -111 98 -37 0 -51 -5 -73 -28 l-27 -27 -72 29 c-70 29
-73 31 -73 63 0 71 -86 121 -156 89z m96 -21 c80 -41 46 -165 -45 -165 -84 0
-120 110 -52 162 27 22 59 23 97 3z m375 -157 c29 -34 31 -57 10 -97 -40 -78
-165 -51 -165 36 0 46 16 72 52 87 41 18 74 9 103 -26z m-243 5 c67 -28 68
-29 68 -65 0 -34 -4 -40 -40 -58 -21 -11 -41 -20 -44 -20 -3 0 -26 27 -51 60
-45 58 -45 60 -29 85 9 14 19 25 22 25 3 0 36 -12 74 -27z m376 -148 c2 -2 -4
-17 -12 -34 -21 -41 -20 -89 3 -128 l20 -31 -40 -16 c-52 -21 -56 -20 -91 9
-37 32 -70 40 -107 27 -27 -10 -31 -8 -61 35 -35 48 -34 57 10 111 16 19 22
21 46 12 34 -13 82 1 114 35 l22 23 46 -19 c26 -11 48 -22 50 -24z m-282 10
c2 -5 -10 -26 -26 -45 l-30 -35 -20 25 c-26 33 -25 34 13 53 34 17 58 18 63 2z
m-209 -27 c30 -28 36 -63 18 -98 -28 -53 -91 -67 -139 -29 -21 16 -26 29 -26
63 0 83 86 121 147 64z m117 -42 l25 -34 -21 -28 c-12 -16 -23 -31 -25 -33 -2
-2 -14 2 -28 9 -44 23 -31 117 16 120 4 0 18 -15 33 -34z m70 -90 c43 -57 33
-81 -22 -51 -55 30 -56 30 -37 59 10 14 21 26 25 26 4 0 19 -15 34 -34z m-1
-120 c-7 -40 -7 -40 -80 -64 l-62 -20 -16 24 c-17 27 -17 28 33 97 l34 47 48
-26 c46 -25 49 -29 43 -58z m174 51 c56 -57 16 -147 -66 -147 -32 0 -44 6 -65
31 -29 34 -32 62 -12 98 30 54 100 63 143 18z m-359 -109 c33 -37 36 -69 10
-108 -20 -30 -30 -35 -69 -38 -58 -4 -91 27 -91 84 0 74 100 115 150 62z"/>
<path d="M4690 1951 c0 -12 6 -21 16 -21 9 0 14 7 12 17 -5 25 -28 28 -28 4z"/>
<path d="M5040 1815 c0 -10 7 -15 18 -13 21 4 19 22 -2 26 -10 2 -16 -3 -16
-13z"/>
<path d="M4691 1656 c-12 -14 -5 -26 16 -26 15 0 18 26 4 34 -5 3 -14 0 -20
-8z"/>
<path d="M5050 1445 c0 -8 7 -15 15 -15 8 0 15 7 15 15 0 8 -7 15 -15 15 -8 0
-15 -7 -15 -15z"/>
<path d="M4686 1341 c-7 -11 18 -33 27 -24 4 3 7 12 7 20 0 15 -26 18 -34 4z"/>
<path d="M2527 2031 c-30 -9 -37 -36 -37 -147 0 -80 4 -115 13 -123 8 -6 80
-12 188 -13 l174 -3 3 -52 c2 -38 -1 -53 -10 -53 -7 -1 -77 -1 -155 0 -163 1
-183 -5 -183 -53 0 -29 -5 -35 -35 -46 -42 -15 -72 -51 -81 -97 -9 -49 2 -82
41 -121 29 -29 39 -33 85 -33 48 0 56 4 92 40 39 39 40 42 36 95 -5 64 -24 89
-85 117 -28 12 -43 25 -43 37 0 37 22 42 181 39 l154 -3 3 -92 3 -93 -55 0
c-40 0 -55 -4 -60 -16 -3 -9 -6 -67 -6 -129 0 -91 3 -114 15 -119 8 -3 65 -4
125 -3 86 2 113 5 120 17 11 16 14 209 4 234 -5 12 -21 16 -70 16 l-65 0 3 93
3 92 170 0 170 0 3 -32 c3 -31 1 -33 -28 -33 -26 0 -36 -8 -70 -62 -22 -33
-40 -65 -40 -71 0 -16 69 -125 83 -129 6 -2 42 -2 78 0 l66 4 37 63 37 63 -39
64 c-33 54 -43 63 -70 66 -29 3 -32 6 -32 37 0 24 -6 38 -19 45 -11 6 -90 10
-185 10 l-166 0 0 39 c0 74 -6 71 177 71 94 0 173 4 184 10 17 10 19 22 19
128 0 64 -4 123 -9 130 -9 14 -165 22 -177 9 -4 -4 27 -7 69 -7 49 0 80 -5 89
-13 10 -10 12 -40 8 -123 l-5 -109 -349 -3 c-249 -2 -353 1 -362 9 -19 16 -20
212 -1 228 9 7 101 12 268 13 l254 3 -253 5 c-138 3 -258 3 -265 1z m79 -535
c37 -37 45 -85 23 -129 -45 -88 -186 -69 -205 28 -8 44 3 74 38 107 44 41 99
39 144 -6z m724 -13 c16 -27 30 -54 30 -62 0 -7 -12 -35 -27 -62 l-26 -49 -66
0 -67 0 -29 54 -29 55 23 43 c37 67 39 68 102 68 l59 0 30 -47z m-330 -182 l0
-109 -110 -1 -110 -2 0 111 0 110 110 0 110 0 0 -109z"/>
<path d="M2514 1429 c-3 -6 -2 -15 4 -21 13 -13 32 -2 32 18 0 16 -26 19 -36
3z"/>
<path d="M3222 1423 c5 -26 38 -29 38 -4 0 15 -6 21 -21 21 -14 0 -19 -5 -17
-17z"/>
<path d="M2867 1313 c-12 -12 -7 -41 7 -46 22 -9 41 19 26 38 -14 16 -23 19
-33 8z"/>
<path d="M6947 2018 c-38 -57 -40 -73 -18 -116 22 -42 41 -62 41 -41 0 6 -10
27 -22 47 l-21 35 23 43 c25 46 22 72 -3 32z"/>
<path d="M7410 2032 c0 -7 9 -30 19 -51 l20 -37 -24 -42 c-13 -23 -20 -44 -15
-47 4 -3 20 16 35 41 l27 46 -22 42 c-28 50 -40 65 -40 48z"/>
<path d="M6984 1978 c-15 -32 -15 -37 0 -66 9 -18 21 -32 26 -32 14 0 13 7 -6
35 -14 21 -14 30 -4 55 18 43 4 50 -16 8z"/>
<path d="M7367 2004 c-3 -4 1 -20 9 -36 13 -25 13 -31 -1 -50 -17 -25 -19 -38
-7 -38 5 0 17 15 27 34 18 33 18 35 -1 65 -11 17 -23 28 -27 25z"/>
<path d="M2765 1870 c-8 -14 3 -30 21 -30 8 0 14 9 14 20 0 21 -24 28 -35 10z"/>
<path d="M2855 1870 c-8 -14 3 -30 21 -30 8 0 14 9 14 20 0 21 -24 28 -35 10z"/>
<path d="M2935 1870 c-4 -7 -3 -16 3 -22 14 -14 45 -2 40 15 -6 16 -34 21 -43
7z"/>
<path d="M5362 1661 c-21 -13 -10 -46 16 -49 27 -4 40 22 22 43 -14 17 -20 18
-38 6z"/>
<path d="M7083 1544 c-7 -19 11 -39 26 -30 16 10 13 33 -4 40 -9 3 -18 -1 -22
-10z"/>
<path d="M7173 1544 c-7 -19 11 -39 26 -30 16 10 13 33 -4 40 -9 3 -18 -1 -22
-10z"/>
<path d="M7253 1544 c-8 -21 13 -42 28 -27 13 13 5 43 -11 43 -6 0 -13 -7 -17
-16z"/>
<path d="M7435 1389 c-109 -29 -125 -187 -24 -241 42 -22 71 -23 116 -1 87 41
99 174 19 223 -32 20 -77 27 -111 19z m79 -23 c45 -19 66 -52 66 -102 0 -78
-67 -127 -141 -105 -95 29 -106 160 -17 204 41 20 50 21 92 3z"/>
<path d="M7454 1279 c-10 -17 13 -36 27 -22 12 12 4 33 -11 33 -5 0 -12 -5
-16 -11z"/>
<path d="M6864 1380 c-48 -19 -80 -77 -75 -135 10 -122 177 -158 241 -52 64
104 -51 234 -166 187z m127 -38 c24 -21 32 -38 36 -75 5 -43 3 -49 -30 -82
-28 -28 -43 -35 -73 -35 -89 0 -145 79 -109 154 33 70 120 88 176 38z"/>
<path d="M6900 1266 c0 -8 4 -17 9 -20 11 -7 33 18 24 27 -12 12 -33 7 -33 -7z"/>
<path d="M7150 1383 c-30 -11 -71 -58 -80 -94 -29 -107 88 -197 189 -145 60
32 86 116 53 175 -30 55 -105 85 -162 64z m107 -33 c44 -26 61 -82 40 -132
-22 -51 -57 -72 -113 -65 -52 5 -79 26 -94 73 -33 99 76 180 167 124z"/>
<path d="M7176 1271 c-7 -11 18 -33 27 -24 4 3 7 12 7 20 0 15 -26 18 -34 4z"/>
</g>
</svg>
