<?xml version="1.0" standalone="no"?>
<!DOCTYPE svg PUBLIC "-//W3C//DTD SVG 20010904//EN"
 "http://www.w3.org/TR/2001/REC-SVG-20010904/DTD/svg10.dtd">
<svg version="1.0" xmlns="http://www.w3.org/2000/svg"
 width="194.000000pt" height="260.000000pt" viewBox="0 0 194.000000 260.000000"
 preserveAspectRatio="xMidYMid meet">

<g transform="translate(0.000000,260.000000) scale(0.100000,-0.100000)"
fill="#000000" stroke="none">
<path d="M780 2590 c-273 -27 -489 -109 -534 -203 -21 -46 -23 -252 -2 -300
29 -68 130 -129 281 -170 l91 -24 22 93 c38 158 121 305 239 420 l62 62 3
-567 c3 -563 3 -566 25 -615 l23 -48 38 33 c21 19 51 50 67 70 28 34 35 37
115 48 185 25 349 90 415 163 l35 38 0 193 0 192 -19 -31 c-38 -63 -139 -118
-282 -154 -43 -11 -80 -20 -82 -20 -3 0 -7 27 -9 60 -3 58 -2 61 22 67 192 44
307 99 350 168 17 28 20 50 20 166 0 115 -3 138 -20 166 -45 74 -189 139 -385
173 -131 22 -356 32 -475 20z"/>
<path d="M230 1795 c0 -212 5 -228 91 -287 80 -55 246 -107 398 -123 l64 -7
-22 33 c-48 73 -98 190 -116 271 l-19 86 -84 21 c-141 34 -257 96 -293 155
l-19 31 0 -180z"/>
<path d="M230 1295 c0 -214 5 -228 96 -290 70 -48 179 -86 319 -111 138 -26
469 -26 604 -1 192 36 342 102 389 171 21 31 22 42 22 222 l0 189 -19 -31
c-58 -95 -254 -169 -514 -194 -153 -15 -157 -19 -157 -122 0 -51 -3 -68 -14
-68 -9 0 -16 18 -20 53 -4 28 -11 68 -16 88 l-10 35 -132 13 c-270 26 -471
100 -529 194 l-19 32 0 -180z"/>
<path d="M1430 440 l0 -190 94 0 c127 0 126 -2 126 192 0 188 0 188 -130 188
l-90 0 0 -190z m140 0 l0 -130 -30 0 -30 0 0 130 0 130 30 0 30 0 0 -130z"/>
<path d="M1692 443 l3 -188 92 -3 c123 -4 122 -6 122 191 0 188 0 187 -129
187 l-90 0 2 -187z m138 77 c0 -49 -1 -50 -30 -50 -29 0 -30 1 -30 50 0 49 1
50 30 50 29 0 30 -1 30 -50z m0 -160 c0 -49 -1 -50 -30 -50 -29 0 -30 1 -30
50 0 49 1 50 30 50 29 0 30 -1 30 -50z"/>
<path d="M30 399 l0 -150 38 3 37 3 3 118 c2 106 4 118 20 115 15 -3 17 -19
20 -121 l3 -117 39 0 40 0 0 121 c0 109 2 120 18 117 15 -3 17 -18 20 -121 l3
-117 40 0 41 0 -4 136 c-3 122 -5 137 -23 150 -14 11 -33 14 -60 10 -22 -3
-44 -6 -50 -5 -5 0 -49 2 -97 4 l-88 5 0 -151z"/>
<path d="M401 531 c-19 -19 -21 -32 -21 -131 0 -138 8 -150 101 -150 99 0 99
0 99 143 0 67 -4 129 -10 137 -6 9 -32 16 -78 18 -61 4 -73 1 -91 -17z m109
-131 c0 -89 0 -90 -25 -90 -25 0 -25 1 -25 90 0 89 0 90 25 90 25 0 25 -1 25
-90z"/>
<path d="M622 402 l3 -147 37 -3 37 -3 3 118 c3 103 5 118 21 121 15 3 17 -8
17 -117 l0 -121 40 0 40 0 0 130 c0 165 -2 168 -119 168 l-82 1 3 -147z"/>
<path d="M875 533 c-19 -19 -22 -242 -3 -261 7 -7 34 -12 60 -12 36 0 48 -4
48 -15 0 -12 -13 -15 -55 -15 -54 0 -55 0 -55 -30 l0 -30 73 0 c108 0 107 -2
107 207 l0 171 -80 0 c-58 0 -84 -4 -95 -15z m103 -131 c3 -82 3 -82 -23 -82
-25 0 -25 1 -25 78 0 82 4 95 30 90 12 -3 16 -21 18 -86z"/>
<path d="M1114 536 c-17 -13 -19 -27 -19 -136 0 -109 2 -123 19 -136 25 -18
147 -19 164 -2 8 8 12 54 12 140 0 116 -2 128 -19 138 -29 15 -134 12 -157 -4z
m106 -136 c0 -89 0 -90 -25 -90 -25 0 -25 1 -25 90 0 89 0 90 25 90 25 0 25
-1 25 -90z"/>
</g>
</svg>
